<svg width="60" height="50" viewBox="0 0 60 50" fill="none" xmlns="http://www.w3.org/2000/svg">
<path d="M13.3333 0H6.66667C4.89856 0 3.20286 1.05357 1.95262 2.92893C0.702379 4.8043 0 7.34784 0 10V50H6.66667V30H13.3333V50H20V10C20 7.34784 19.2976 4.8043 18.0474 2.92893C16.7971 1.05357 15.1014 0 13.3333 0ZM13.3333 20H6.66667V10H13.3333V20ZM36.6667 0H23.3333V50H30V30H36.6667C38.4348 30 40.1305 28.9464 41.3807 27.0711C42.631 25.1957 43.3333 22.6522 43.3333 20V10C43.3333 7.34784 42.631 4.8043 41.3807 2.92893C40.1305 1.05357 38.4348 0 36.6667 0ZM36.6667 20H30V10H36.6667V20ZM56.6667 10V40H60V50H46.6667V40H50V10H46.6667V0H60V10H56.6667Z" fill="#101010"/>
</svg>
