<svg width="54" height="54" viewBox="0 0 54 54" fill="none" xmlns="http://www.w3.org/2000/svg">
<path d="M39.3667 25.5708L43.9458 20.9916L33.0083 10.0541L28.4292 14.6333L16.3542 2.58744C14.0792 0.31244 10.375 0.31244 8.1 2.58744L2.55833 8.12911C0.283333 10.4041 0.283333 14.1083 2.55833 16.3833L14.6042 28.4291L0.75 42.3124V53.2499H11.6875L25.5708 39.3666L37.6167 51.4124C40.3875 54.1833 44.1208 53.1624 45.8708 51.4124L51.4125 45.8708C53.6875 43.5958 53.6875 39.8916 51.4125 37.6166L39.3667 25.5708ZM18.775 24.2874L6.7 12.2416L12.2125 6.69994L15.9167 10.4041L12.475 13.8749L16.5875 17.9874L20.0583 14.5166L24.2875 18.7458L18.775 24.2874ZM41.7583 47.2999L29.7125 35.2541L35.2542 29.7124L39.4833 33.9416L36.0125 37.4124L40.125 41.5249L43.5958 38.0541L47.3 41.7583L41.7583 47.2999ZM52.4042 12.5333C52.6746 12.2634 52.8891 11.9429 53.0354 11.5901C53.1818 11.2373 53.2571 10.859 53.2571 10.477C53.2571 10.095 53.1818 9.71679 53.0354 9.36395C52.8891 9.01111 52.6746 8.69061 52.4042 8.42077L45.5792 1.59577C44.2083 0.22494 42.3125 0.74994 41.4667 1.59577L36.1292 6.93327L47.0667 17.8708L52.4042 12.5333Z" fill="#101010"/>
</svg>
