<svg width="70" height="62" viewBox="0 0 70 62" fill="none" xmlns="http://www.w3.org/2000/svg">
<path d="M62.5 0.375H7.5C3.35938 0.375 0 3.31445 0 6.9375V55.0625C0 58.6855 3.35938 61.625 7.5 61.625H62.5C66.6406 61.625 70 58.6855 70 55.0625V6.9375C70 3.31445 66.6406 0.375 62.5 0.375ZM38.0938 48.1445C38.0938 54.1055 34.0938 56.8262 28.2656 56.8262C23 56.8262 19.9531 54.4473 18.3906 51.5625L23.75 48.7324C24.7812 50.332 25.7188 51.6855 27.9844 51.6855C30.1406 51.6855 31.5156 50.9473 31.5156 48.0625V28.498H38.0938V48.1445ZM53.6562 56.8262C47.5469 56.8262 43.5938 54.2832 41.6719 50.9473L47.0312 48.2402C48.4375 50.25 50.2812 51.7402 53.5156 51.7402C56.2344 51.7402 57.9844 50.5508 57.9844 48.8965C57.9844 46.9277 56.2031 46.2305 53.1875 45.0684L51.5469 44.4531C46.7969 42.6895 43.6562 40.4609 43.6562 35.7715C43.6562 31.4512 47.4219 28.1699 53.2812 28.1699C57.4688 28.1699 60.4687 29.4414 62.625 32.7773L57.5 35.6484C56.375 33.8848 55.1562 33.1875 53.2656 33.1875C51.3438 33.1875 50.125 34.2539 50.125 35.6484C50.125 37.3711 51.3438 38.0684 54.1719 39.1484L55.8125 39.7637C61.4062 41.8555 64.5469 44.002 64.5469 48.8145C64.5469 53.9824 59.8906 56.8262 53.6562 56.8262Z" fill="#101010"/>
</svg>
