<svg width="70" height="70" viewBox="0 0 70 70" fill="none" xmlns="http://www.w3.org/2000/svg">
<path fill-rule="evenodd" clip-rule="evenodd" d="M34.9999 42V70C26.2778 69.9947 17.8719 66.7329 11.429 60.8537C4.98619 54.9745 0.970673 46.9015 0.169162 38.2163C-0.632349 29.531 1.83791 20.8595 7.09599 13.9005C12.3541 6.94142 20.0211 2.19639 28.5949 0.594971L34.9999 6.99997H52.4999C57.1351 6.99996 61.581 8.8389 64.8619 12.1132C68.1428 15.3875 69.9906 19.8297 69.9999 24.465V56.035C69.9906 59.7419 68.5116 63.2939 65.887 65.9118C63.2625 68.5298 59.7069 70 55.9999 70V63C57.8564 63 59.6369 62.2625 60.9497 60.9497C62.2624 59.637 62.9999 57.8565 62.9999 56C62.9999 54.1435 62.2624 52.363 60.9497 51.0502C59.6369 49.7375 57.8564 49 55.9999 49H41.9999L34.9999 42ZM54.2499 31.5C55.6423 31.5 56.9776 30.9468 57.9622 29.9623C58.9468 28.9777 59.4999 27.6424 59.4999 26.25C59.4999 24.8576 58.9468 23.5222 57.9622 22.5377C56.9776 21.5531 55.6423 21 54.2499 21C52.8575 21 51.5222 21.5531 50.5376 22.5377C49.553 23.5222 48.9999 24.8576 48.9999 26.25C48.9999 27.6424 49.553 28.9777 50.5376 29.9623C51.5222 30.9468 52.8575 31.5 54.2499 31.5Z" fill="#101010"/>
</svg>
