<svg width="70" height="60" viewBox="0 0 70 60" fill="none" xmlns="http://www.w3.org/2000/svg">
<path d="M11.6667 6.66667V40H26.25V26.6667C26.25 24.8986 26.8646 23.2029 27.9585 21.9526C29.0525 20.7024 30.5362 20 32.0833 20H46.6667C48.2138 20 49.6975 20.7024 50.7915 21.9526C51.8854 23.2029 52.5 24.8986 52.5 26.6667V40H58.3333V6.66667H11.6667ZM0 53.3333V46.6667H11.6667C10.1196 46.6667 8.63584 45.9643 7.54188 44.714C6.44791 43.4638 5.83333 41.7681 5.83333 40V6.66667C5.83333 4.89856 6.44791 3.20286 7.54188 1.95262C8.63584 0.702379 10.1196 0 11.6667 0H58.3333C59.8804 0 61.3642 0.702379 62.4581 1.95262C63.5521 3.20286 64.1667 4.89856 64.1667 6.66667V40C64.1667 41.7681 63.5521 43.4638 62.4581 44.714C61.3642 45.9643 59.8804 46.6667 58.3333 46.6667H70V53.3333H52.5C52.5 55.1014 51.8854 56.7971 50.7915 58.0474C49.6975 59.2976 48.2138 60 46.6667 60H32.0833C30.5362 60 29.0525 59.2976 27.9585 58.0474C26.8646 56.7971 26.25 55.1014 26.25 53.3333H0ZM33.5417 53.3333C33.1549 53.3333 32.784 53.5089 32.5105 53.8215C32.237 54.134 32.0833 54.558 32.0833 55C32.0833 55.442 32.237 55.866 32.5105 56.1785C32.784 56.4911 33.1549 56.6667 33.5417 56.6667C33.9284 56.6667 34.2994 56.4911 34.5729 56.1785C34.8464 55.866 35 55.442 35 55C35 54.558 34.8464 54.134 34.5729 53.8215C34.2994 53.5089 33.9284 53.3333 33.5417 53.3333ZM45.2083 53.3333C44.8216 53.3333 44.4506 53.5089 44.1771 53.8215C43.9036 54.134 43.75 54.558 43.75 55C43.75 55.442 43.9036 55.866 44.1771 56.1785C44.4506 56.4911 44.8216 56.6667 45.2083 56.6667C45.5951 56.6667 45.966 56.4911 46.2395 56.1785C46.513 55.866 46.6667 55.442 46.6667 55C46.6667 54.558 46.513 54.134 46.2395 53.8215C45.966 53.5089 45.5951 53.3333 45.2083 53.3333ZM37.9167 53.3333V56.6667H40.8333V53.3333H37.9167ZM32.0833 26.6667V50H46.6667V26.6667H32.0833Z" fill="#101010"/>
</svg>
